umbra-7.ufo
<glyph name="exclam" format="1">
  <advance width="291"/>
  <unicode hex="0021"/>
  <outline>
    <contour>
      <point x="-46" y="58" type="line"/>
      <point x="-76" y="338" type="line"/>
      <point x="84" y="338" type="line"/>
      <point x="54" y="58" type="line"/>
    </contour>
    <contour>
      <point x="4" y="-190" type="line"/>
      <point x="-101" y="-85" type="line"/>
      <point x="4" y="21" type="line"/>
      <point x="110" y="-85" type="line"/>
    </contour>
  </outline>
</glyph>
<glyph name="quotedbl" format="1">
  <advance width="390"/>
  <unicode hex="0022"/>
  <outline>
    <contour>
      <point x="-66" y="128" type="line"/>
      <point x="-96" y="338" type="line"/>
      <point x="34" y="338" type="line"/>
      <point x="4" y="128" type="line"/>
    </contour>
    <contour>
      <point x="104" y="128" type="line"/>
      <point x="74" y="338" type="line"/>
      <point x="204" y="338" type="line"/>
      <point x="174" y="128" type="line"/>
    </contour>
  </outline>
</glyph>
<glyph name="numbersign" format="1">
  <advance width="600"/>
  <unicode hex="0023"/>
  <outline>
    <contour>
      <point x="-121" y="-47" type="line"/>
      <point x="-121" y="48" type="line"/>
      <point x="2" y="48" type="line"/>
      <point x="16" y="128" type="line"/>
      <point x="-71" y="128" type="line"/>
      <point x="-71" y="223" type="line"/>
      <point x="33" y="223" type="line"/>
      <point x="54" y="338" type="line"/>
      <point x="159" y="338" type="line"/>
      <point x="138" y="223" type="line"/>
      <point x="218" y="223" type="line"/>
      <point x="239" y="338" type="line"/>
      <point x="344" y="338" type="line"/>
      <point x="323" y="223" type="line"/>
      <point x="429" y="223" type="line"/>
      <point x="429" y="128" type="line"/>
      <point x="306" y="128" type="line"/>
      <point x="292" y="48" type="line"/>
      <point x="379" y="48" type="line"/>
      <point x="379" y="-47" type="line"/>
      <point x="275" y="-47" type="line"/>
      <point x="254" y="-162" type="line"/>
      <point x="149" y="-162" type="line"/>
      <point x="170" y="-47" type="line"/>
      <point x="90" y="-47" type="line"/>
      <point x="69" y="-162" type="line"/>
      <point x="-36" y="-162" type="line"/>
      <point x="-15" y="-47" type="line"/>
    </contour>
    <contour>
      <point x="187" y="48" type="line"/>
      <point x="201" y="128" type="line"/>
      <point x="121" y="128" type="line"/>
      <point x="107" y="48" type="line"/>
    </contour>
  </outline>
</glyph>
<glyph name="dollar" format="1">
  <advance width="449"/>
  <unicode hex="0024"/>
  <outline>
    <contour>
      <point x="138" y="-12" type="curve" smooth="yes"/>
      <point x="138" y="48"/>
      <point x="-95" y="51"/>
      <point x="-95" y="201" type="curve" smooth="yes"/>
      <point x="-95" y="280"/>
      <point x="-39" y="331"/>
      <point x="39" y="347" type="curve"/>
      <point x="24" y="408" type="line"/>
      <point x="164" y="408" type="line"/>
      <point x="149" y="347" type="line"/>
      <point x="195" y="335"/>
      <point x="237" y="308"/>
      <point x="274" y="266" type="curve"/>
      <point x="234" y="156" type="line"/>
      <point x="194" y="194"/>
      <point x="146" y="233"/>
      <point x="98" y="233" type="curve" smooth="yes"/>
      <point x="70" y="233"/>
      <point x="60" y="219"/>
      <point x="60" y="201" type="curve" smooth="yes"/>
      <point x="60" y="141"/>
      <point x="283" y="134"/>
      <point x="283" y="-10" type="curve" smooth="yes"/>
      <point x="283" y="-115"/>
      <point x="218" y="-160"/>
      <point x="135" y="-173" type="curve"/>
      <point x="151" y="-237" type="line"/>
      <point x="11" y="-237" type="line"/>
      <point x="27" y="-173" type="line"/>
      <point x="-42" y="-163"/>
      <point x="-94" y="-133"/>
      <point x="-126" y="-95" type="curve"/>
      <point x="-86" y="20" type="line"/>
      <point x="-46" y="-18"/>
      <point x="23" y="-52"/>
      <point x="71" y="-52" type="curve" smooth="yes"/>
      <point x="109" y="-52"/>
      <point x="138" y="-43"/>
    </contour>
  </outline>
</glyph>
<glyph name="plus" format="1">
  <advance width="560"/>
  <unicode hex="002B"/>
  <outline>
    <contour>
      <point x="-56" y="28" type="line"/>
      <point x="-56" y="138" type="line"/>
      <point x="69" y="138" type="line"/>
      <point x="69" y="258" type="line"/>
      <point x="209" y="258" type="line"/>
      <point x="209" y="138" type="line"/>
      <point x="334" y="138" type="line"/>
      <point x="334" y="28" type="line"/>
      <point x="209" y="28" type="line"/>
      <point x="209" y="-92" type="line"/>
      <point x="69" y="-92" type="line"/>
      <point x="69" y="28" type="line"/>
    </contour>
  </outline>
</glyph>
<glyph name="hyphen" format="1">
  <advance width="560"/>
  <unicode hex="002D"/>
  <outline>
    <contour>
      <point x="-56" y="108" type="line"/>
      <point x="-56" y="218" type="line"/>
      <point x="334" y="218" type="line"/>
      <point x="334" y="108" type="line"/>
    </contour>
  </outline>
</glyph>
<glyph name="eight" format="1">
  <advance width="464"/>
  <unicode hex="0038"/>
  <outline>
    <contour>
      <point x="19" y="-10" type="curve" smooth="yes"/>
      <point x="19" y="-38"/>
      <point x="43" y="-57"/>
      <point x="91" y="-57" type="curve" smooth="yes"/>
      <point x="139" y="-57"/>
      <point x="163" y="-38"/>
      <point x="163" y="-10" type="curve" smooth="yes"/>
      <point x="163" y="18"/>
      <point x="139" y="38"/>
      <point x="91" y="38" type="curve" smooth="yes"/>
      <point x="43" y="38"/>
      <point x="19" y="18"/>
    </contour>
    <contour>
      <point x="39" y="192" type="curve" smooth="yes"/>
      <point x="39" y="164"/>
      <point x="63" y="153"/>
      <point x="91" y="153" type="curve" smooth="yes"/>
      <point x="119" y="153"/>
      <point x="143" y="164"/>
      <point x="143" y="192" type="curve" smooth="yes"/>
      <point x="143" y="220"/>
      <point x="119" y="233"/>
      <point x="91" y="233" type="curve" smooth="yes"/>
      <point x="63" y="233"/>
      <point x="39" y="220"/>
    </contour>
    <contour>
      <point x="-91" y="202" type="curve" smooth="yes"/>
      <point x="-91" y="279"/>
      <point x="-26" y="348"/>
      <point x="91" y="348" type="curve" smooth="yes"/>
      <point x="208" y="348"/>
      <point x="273" y="279"/>
      <point x="273" y="202" type="curve" smooth="yes"/>
      <point x="273" y="155"/>
      <point x="248" y="119"/>
      <point x="202" y="98" type="curve"/>
      <point x="258" y="79"/>
      <point x="293" y="42"/>
      <point x="293" y="-20" type="curve" smooth="yes"/>
      <point x="293" y="-127"/>
      <point x="208" y="-172"/>
      <point x="91" y="-172" type="curve" smooth="yes"/>
      <point x="-26" y="-172"/>
      <point x="-111" y="-117"/>
      <point x="-111" y="-20" type="curve" smooth="yes"/>
      <point x="-111" y="43"/>
      <point x="-75" y="81"/>
      <point x="-17" y="99" type="curve"/>
      <point x="-65" y="122"/>
      <point x="-91" y="160"/>
    </contour>
  </outline>
</glyph>
<glyph name="semicolon" format="1">
  <advance width="291"/>
  <unicode hex="003B"/>
  <outline>
    <contour>
      <point x="-56" y="-282" type="line"/>
      <point x="-56" y="-22" type="line"/>
      <point x="74" y="-22" type="line"/>
      <point x="74" y="-162" type="line"/>
    </contour>
    <contour>
      <point x="4" y="95" type="line"/>
      <point x="-101" y="200" type="line"/>
      <point x="4" y="306" type="line"/>
      <point x="110" y="200" type="line"/>
    </contour>
  </outline>
</glyph>
<glyph name="equal" format="1">
  <advance width="560"/>
  <unicode hex="003D"/>
  <outline>
    <contour>
      <point x="-56" y="-52" type="line"/>
      <point x="-56" y="58" type="line"/>
      <point x="334" y="58" type="line"/>
      <point x="334" y="-52" type="line"/>
    </contour>
    <contour>
      <point x="-56" y="128" type="line"/>
      <point x="-56" y="238" type="line"/>
      <point x="334" y="238" type="line"/>
      <point x="334" y="128" type="line"/>
    </contour>
  </outline>
</glyph>
<glyph name="at" format="1">
  <advance width="700"/>
  <unicode hex="0040"/>
  <outline>
    <contour>
      <point x="539" y="58" type="curve" smooth="yes"/>
      <point x="539" y="-72"/>
      <point x="492" y="-174"/>
      <point x="365" y="-174" type="curve" smooth="yes"/>
      <point x="318" y="-174"/>
      <point x="273" y="-163"/>
      <point x="258" y="-117" type="curve"/>
      <point x="234" y="-144"/>
      <point x="202" y="-162"/>
      <point x="166" y="-162" type="curve" smooth="yes"/>
      <point x="59" y="-162"/>
      <point x="14" y="-67"/>
      <point x="14" y="20" type="curve" smooth="yes"/>
      <point x="14" y="107"/>
      <point x="69" y="203"/>
      <point x="156" y="203" type="curve" smooth="yes"/>
      <point x="193" y="203"/>
      <point x="226" y="186"/>
      <point x="253" y="160" type="curve"/>
      <point x="253" y="193" type="line"/>
      <point x="388" y="193" type="line"/>
      <point x="388" y="-52" type="line" smooth="yes"/>
      <point x="388" y="-80"/>
      <point x="390" y="-89"/>
      <point x="405" y="-89" type="curve" smooth="yes"/>
      <point x="433" y="-89"/>
      <point x="454" y="-22"/>
      <point x="454" y="58" type="curve" smooth="yes"/>
      <point x="454" y="231"/>
      <point x="336" y="288"/>
      <point x="214" y="288" type="curve" smooth="yes"/>
      <point x="102" y="288"/>
      <point x="-36" y="201"/>
      <point x="-36" y="28" type="curve" smooth="yes"/>
      <point x="-36" y="-175"/>
      <point x="92" y="-227"/>
      <point x="244" y="-227" type="curve"/>
      <point x="244" y="-292" type="line"/>
      <point x="19" y="-292"/>
      <point x="-121" y="-191"/>
      <point x="-121" y="28" type="curve" smooth="yes"/>
      <point x="-121" y="217"/>
      <point x="29" y="358"/>
      <point x="214" y="358" type="curve" smooth="yes"/>
      <point x="409" y="358"/>
      <point x="539" y="227"/>
    </contour>
    <contour>
      <point x="253" y="-33" type="curve"/>
      <point x="253" y="74" type="line"/>
      <point x="236" y="92"/>
      <point x="212" y="98"/>
      <point x="196" y="98" type="curve" smooth="yes"/>
      <point x="168" y="98"/>
      <point x="149" y="68"/>
      <point x="149" y="20" type="curve" smooth="yes"/>
      <point x="149" y="-28"/>
      <point x="168" y="-57"/>
      <point x="196" y="-57" type="curve" smooth="yes"/>
      <point x="212" y="-57"/>
      <point x="236" y="-50"/>
    </contour>
  </outline>
</glyph>
<glyph name="B" format="1">
  <advance width="502"/>
  <unicode hex="0042"/>
  <outline>
    <contour>
      <point x="-96" y="-162" type="curve"/>
      <point x="-96" y="338" type="line"/>
      <point x="-23" y="338"/>
      <point x="51" y="338"/>
      <point x="124" y="338" type="curve" smooth="yes"/>
      <point x="241" y="338"/>
      <point x="316" y="283"/>
      <point x="316" y="196" type="curve" smooth="yes"/>
      <point x="316" y="142"/>
      <point x="293" y="112"/>
      <point x="253" y="96" type="curve"/>
      <point x="306" y="75"/>
      <point x="336" y="37"/>
      <point x="336" y="-19" type="curve" smooth="yes"/>
      <point x="336" y="-116"/>
      <point x="261" y="-162"/>
      <point x="144" y="-162" type="curve" smooth="yes"/>
      <point x="64" y="-162"/>
      <point x="-16" y="-162"/>
    </contour>
    <contour>
      <point x="124" y="233" type="curve" smooth="yes"/>
      <point x="44" y="233" type="line"/>
      <point x="44" y="143" type="line"/>
      <point x="124" y="143" type="line" smooth="yes"/>
      <point x="152" y="143"/>
      <point x="171" y="158"/>
      <point x="171" y="186" type="curve" smooth="yes"/>
      <point x="171" y="214"/>
      <point x="152" y="233"/>
    </contour>
    <contour>
      <point x="44" y="48" type="line"/>
      <point x="44" y="-52" type="line"/>
      <point x="134" y="-52" type="line" smooth="yes"/>
      <point x="172" y="-52"/>
      <point x="191" y="-29"/>
      <point x="191" y="-1" type="curve" smooth="yes"/>
      <point x="191" y="27"/>
      <point x="172" y="48"/>
      <point x="134" y="48" type="curve" smooth="yes"/>
    </contour>
  </outline>
</glyph>
<glyph name="D" format="1">
  <advance width="555"/>
  <unicode hex="0044"/>
  <outline>
    <contour>
      <point x="-96" y="-162" type="curve"/>
      <point x="-96" y="338" type="line"/>
      <point x="-23" y="338"/>
      <point x="51" y="338"/>
      <point x="124" y="338" type="curve" smooth="yes"/>
      <point x="299" y="338"/>
      <point x="384" y="237"/>
      <point x="384" y="88" type="curve" smooth="yes"/>
      <point x="384" y="-61"/>
      <point x="299" y="-162"/>
      <point x="124" y="-162" type="curve" smooth="yes"/>
      <point x="51" y="-162"/>
      <point x="-23" y="-162"/>
    </contour>
    <contour>
      <point x="124" y="-42" type="line" smooth="yes"/>
      <point x="186" y="-42"/>
      <point x="239" y="-5"/>
      <point x="239" y="88" type="curve" smooth="yes"/>
      <point x="239" y="181"/>
      <point x="186" y="218"/>
      <point x="124" y="218" type="curve" smooth="yes"/>
      <point x="44" y="218" type="line"/>
      <point x="44" y="-42" type="line"/>
    </contour>
  </outline>
</glyph>
<glyph name="K" format="1">
  <advance width="525"/>
  <unicode hex="004B"/>
  <outline>
    <contour>
      <point x="-96" y="-162" type="line"/>
      <point x="-96" y="338" type="line"/>
      <point x="44" y="338" type="line"/>
      <point x="44" y="131" type="line"/>
      <point x="204" y="338" type="line"/>
      <point x="374" y="338" type="line"/>
      <point x="194" y="118" type="line"/>
      <point x="384" y="-162" type="line"/>
      <point x="204" y="-162" type="line"/>
      <point x="44" y="74" type="line"/>
      <point x="44" y="-162" type="line"/>
    </contour>
  </outline>
</glyph>
<glyph name="L" format="1">
  <advance width="445"/>
  <unicode hex="004C"/>
  <outline>
    <contour>
      <point x="-96" y="-162" type="curve"/>
      <point x="-96" y="338" type="line"/>
      <point x="44" y="338" type="line"/>
      <point x="44" y="-42" type="line"/>
      <point x="284" y="-42" type="line"/>
      <point x="284" y="-162" type="line"/>
      <point x="157" y="-162"/>
      <point x="31" y="-162"/>
    </contour>
  </outline>
</glyph>
<glyph name="N" format="1">
  <advance width="590"/>
  <unicode hex="004E"/>
  <outline>
    <contour>
      <point x="-96" y="-162" type="line"/>
      <point x="-96" y="338" type="line"/>
      <point x="74" y="338" type="line"/>
      <point x="264" y="21" type="line"/>
      <point x="264" y="338" type="line"/>
      <point x="404" y="338" type="line"/>
      <point x="404" y="-162" type="line"/>
      <point x="234" y="-162" type="line"/>
      <point x="44" y="155" type="line"/>
      <point x="44" y="-162" type="line"/>
    </contour>
  </outline>
</glyph>
<glyph name="P" format="1">
  <advance width="487"/>
  <unicode hex="0050"/>
  <outline>
    <contour>
      <point x="-96" y="-162" type="line"/>
      <point x="-96" y="338" type="line"/>
      <point x="-23" y="338"/>
      <point x="51" y="338"/>
      <point x="124" y="338" type="curve" smooth="yes"/>
      <point x="241" y="338"/>
      <point x="326" y="263"/>
      <point x="326" y="156" type="curve" smooth="yes"/>
      <point x="326" y="39"/>
      <point x="241" y="-27"/>
      <point x="124" y="-27" type="curve" smooth="yes"/>
      <point x="44" y="-27" type="line"/>
      <point x="44" y="-162" type="line"/>
    </contour>
    <contour>
      <point x="114" y="223" type="curve" smooth="yes"/>
      <point x="44" y="223" type="line"/>
      <point x="44" y="88" type="line"/>
      <point x="114" y="88" type="line" smooth="yes"/>
      <point x="152" y="88"/>
      <point x="181" y="108"/>
      <point x="181" y="156" type="curve" smooth="yes"/>
      <point x="181" y="204"/>
      <point x="152" y="223"/>
    </contour>
  </outline>
</glyph>
<glyph name="a" format="1">
  <advance width="434"/>
  <unicode hex="0061"/>
  <outline>
    <contour>
      <point x="118" y="36" type="curve"/>
      <point x="118" y="50" type="line" smooth="yes"/>
      <point x="118" y="108"/>
      <point x="109" y="128"/>
      <point x="61" y="128" type="curve" smooth="yes"/>
      <point x="43" y="128"/>
      <point x="-6" y="118"/>
      <point x="-46" y="90" type="curve"/>
      <point x="-96" y="160" type="line"/>
      <point x="-36" y="197"/>
      <point x="34" y="233"/>
      <point x="111" y="233" type="curve" smooth="yes"/>
      <point x="198" y="233"/>
      <point x="253" y="177"/>
      <point x="253" y="80" type="curve" smooth="yes"/>
      <point x="253" y="-162" type="line"/>
      <point x="118" y="-162" type="line"/>
      <point x="118" y="-122" type="line"/>
      <point x="92" y="-150"/>
      <point x="53" y="-172"/>
      <point x="1" y="-172" type="curve" smooth="yes"/>
      <point x="-56" y="-172"/>
      <point x="-121" y="-147"/>
      <point x="-121" y="-50" type="curve" smooth="yes"/>
      <point x="-121" y="27"/>
      <point x="-61" y="63"/>
      <point x="16" y="63" type="curve" smooth="yes"/>
      <point x="58" y="63"/>
      <point x="92" y="51"/>
    </contour>
    <contour>
      <point x="118" y="-29" type="line"/>
      <point x="108" y="-21"/>
      <point x="95" y="-11"/>
      <point x="66" y="-11" type="curve" smooth="yes"/>
      <point x="38" y="-11"/>
      <point x="24" y="-33"/>
      <point x="24" y="-51" type="curve" smooth="yes"/>
      <point x="24" y="-69"/>
      <point x="33" y="-96"/>
      <point x="61" y="-96" type="curve" smooth="yes"/>
      <point x="85" y="-96"/>
      <point x="105" y="-84"/>
      <point x="118" y="-69" type="curve"/>
    </contour>
  </outline>
</glyph>
<glyph name="b" format="1">
  <advance width="499"/>
  <unicode hex="0062"/>
  <outline>
    <contour>
      <point x="-101" y="-162" type="line"/>
      <point x="-101" y="368" type="line"/>
      <point x="34" y="368" type="line"/>
      <point x="34" y="184" type="line"/>
      <point x="65" y="215"/>
      <point x="106" y="233"/>
      <point x="151" y="233" type="curve" smooth="yes"/>
      <point x="258" y="233"/>
      <point x="323" y="147"/>
      <point x="323" y="30" type="curve" smooth="yes"/>
      <point x="323" y="-87"/>
      <point x="258" y="-172"/>
      <point x="151" y="-172" type="curve" smooth="yes"/>
      <point x="106" y="-172"/>
      <point x="65" y="-152"/>
      <point x="34" y="-120" type="curve"/>
      <point x="34" y="-162" type="line"/>
    </contour>
    <contour>
      <point x="34" y="-29" type="line"/>
      <point x="53" y="-53"/>
      <point x="82" y="-67"/>
      <point x="111" y="-67" type="curve" smooth="yes"/>
      <point x="159" y="-67"/>
      <point x="188" y="-28"/>
      <point x="188" y="30" type="curve" smooth="yes"/>
      <point x="188" y="88"/>
      <point x="159" y="128"/>
      <point x="111" y="128" type="curve" smooth="yes"/>
      <point x="82" y="128"/>
      <point x="53" y="113"/>
      <point x="34" y="89" type="curve"/>
    </contour>
  </outline>
</glyph>
<glyph name="k" format="1">
  <advance width="485"/>
  <unicode hex="006B"/>
  <outline>
    <contour>
      <point x="-101" y="-162" type="line"/>
      <point x="-101" y="368" type="line"/>
      <point x="34" y="368" type="line"/>
      <point x="34" y="88" type="line"/>
      <point x="169" y="223" type="line"/>
      <point x="334" y="223" type="line"/>
      <point x="174" y="63" type="line"/>
      <point x="344" y="-162" type="line"/>
      <point x="179" y="-162" type="line"/>
      <point x="34" y="30" type="line"/>
      <point x="34" y="-162" type="line"/>
    </contour>
  </outline>
</glyph>
<glyph name="l" format="1">
  <advance width="215"/>
  <unicode hex="006C"/>
  <outline>
    <contour>
      <point x="-101" y="-162" type="line"/>
      <point x="-101" y="368" type="line"/>
      <point x="34" y="368" type="line"/>
      <point x="34" y="-162" type="line"/>
    </contour>
  </outline>
</glyph>
<glyph name="m" format="1">
  <advance width="693"/>
  <unicode hex="006D"/>
  <outline>
    <contour>
      <point x="-101" y="-162" type="line"/>
      <point x="-101" y="223" type="line"/>
      <point x="34" y="223" type="line"/>
      <point x="34" y="157" type="line"/>
      <point x="64" y="204"/>
      <point x="108" y="233"/>
      <point x="151" y="233" type="curve" smooth="yes"/>
      <point x="211" y="233"/>
      <point x="246" y="206"/>
      <point x="262" y="158" type="curve"/>
      <point x="298" y="204"/>
      <point x="348" y="233"/>
      <point x="390" y="233" type="curve" smooth="yes"/>
      <point x="477" y="233"/>
      <point x="512" y="177"/>
      <point x="512" y="80" type="curve" smooth="yes"/>
      <point x="512" y="-162" type="line"/>
      <point x="377" y="-162" type="line"/>
      <point x="377" y="50" type="line" smooth="yes"/>
      <point x="377" y="108"/>
      <point x="368" y="128"/>
      <point x="340" y="128" type="curve" smooth="yes"/>
      <point x="313" y="128"/>
      <point x="289" y="109"/>
      <point x="273" y="84" type="curve"/>
      <point x="273" y="2"/>
      <point x="273" y="-80"/>
      <point x="273" y="-162" type="curve"/>
      <point x="138" y="-162" type="line"/>
      <point x="138" y="50" type="line" smooth="yes"/>
      <point x="138" y="108"/>
      <point x="129" y="128"/>
      <point x="101" y="128" type="curve" smooth="yes"/>
      <point x="74" y="128"/>
      <point x="50" y="109"/>
      <point x="34" y="84" type="curve"/>
      <point x="34" y="-162" type="line"/>
    </contour>
  </outline>
</glyph>
<glyph name="o" format="1">
  <advance width="474"/>
  <unicode hex="006F"/>
  <outline>
    <contour>
      <point x="24" y="30" type="curve" smooth="yes"/>
      <point x="24" y="-18"/>
      <point x="48" y="-57"/>
      <point x="96" y="-57" type="curve" smooth="yes"/>
      <point x="144" y="-57"/>
      <point x="168" y="-18"/>
      <point x="168" y="30" type="curve" smooth="yes"/>
      <point x="168" y="78"/>
      <point x="144" y="118"/>
      <point x="96" y="118" type="curve" smooth="yes"/>
      <point x="48" y="118"/>
      <point x="24" y="78"/>
    </contour>
    <contour>
      <point x="-106" y="30" type="curve" smooth="yes"/>
      <point x="-106" y="157"/>
      <point x="-21" y="233"/>
      <point x="96" y="233" type="curve" smooth="yes"/>
      <point x="213" y="233"/>
      <point x="298" y="157"/>
      <point x="298" y="30" type="curve" smooth="yes"/>
      <point x="298" y="-97"/>
      <point x="213" y="-172"/>
      <point x="96" y="-172" type="curve" smooth="yes"/>
      <point x="-21" y="-172"/>
      <point x="-106" y="-87"/>
    </contour>
  </outline>
</glyph>
<glyph name="p" format="1">
  <advance width="499"/>
  <unicode hex="0070"/>
  <outline>
    <contour>
      <point x="-101" y="223" type="line"/>
      <point x="34" y="223" type="line"/>
      <point x="34" y="181" type="line"/>
      <point x="65" y="213"/>
      <point x="106" y="233"/>
      <point x="151" y="233" type="curve" smooth="yes"/>
      <point x="258" y="233"/>
      <point x="323" y="148"/>
      <point x="323" y="31" type="curve" smooth="yes"/>
      <point x="323" y="-86"/>
      <point x="258" y="-172"/>
      <point x="151" y="-172" type="curve" smooth="yes"/>
      <point x="106" y="-172"/>
      <point x="65" y="-154"/>
      <point x="34" y="-123" type="curve"/>
      <point x="34" y="-307" type="line"/>
      <point x="-101" y="-307" type="line"/>
    </contour>
    <contour>
      <point x="34" y="-28" type="line"/>
      <point x="53" y="-52"/>
      <point x="82" y="-67"/>
      <point x="111" y="-67" type="curve" smooth="yes"/>
      <point x="159" y="-67"/>
      <point x="188" y="-27"/>
      <point x="188" y="31" type="curve" smooth="yes"/>
      <point x="188" y="89"/>
      <point x="159" y="128"/>
      <point x="111" y="128" type="curve" smooth="yes"/>
      <point x="82" y="128"/>
      <point x="53" y="114"/>
      <point x="34" y="90" type="curve"/>
    </contour>
  </outline>
</glyph>
<glyph name="q" format="1">
  <advance width="499"/>
  <unicode hex="0071"/>
  <outline>
    <contour>
      <point x="323" y="223" type="line"/>
      <point x="323" y="-307" type="line"/>
      <point x="188" y="-307" type="line"/>
      <point x="188" y="-123" type="line"/>
      <point x="157" y="-154"/>
      <point x="116" y="-172"/>
      <point x="71" y="-172" type="curve" smooth="yes"/>
      <point x="-36" y="-172"/>
      <point x="-101" y="-86"/>
      <point x="-101" y="31" type="curve" smooth="yes"/>
      <point x="-101" y="148"/>
      <point x="-36" y="233"/>
      <point x="71" y="233" type="curve" smooth="yes"/>
      <point x="116" y="233"/>
      <point x="157" y="213"/>
      <point x="188" y="181" type="curve"/>
      <point x="188" y="223" type="line"/>
    </contour>
    <contour>
      <point x="188" y="90" type="line"/>
      <point x="169" y="114"/>
      <point x="140" y="128"/>
      <point x="111" y="128" type="curve" smooth="yes"/>
      <point x="63" y="128"/>
      <point x="34" y="89"/>
      <point x="34" y="31" type="curve" smooth="yes"/>
      <point x="34" y="-27"/>
      <point x="63" y="-67"/>
      <point x="111" y="-67" type="curve" smooth="yes"/>
      <point x="140" y="-67"/>
      <point x="169" y="-52"/>
      <point x="188" y="-28" type="curve"/>
    </contour>
  </outline>
</glyph>
<glyph name="v" format="1">
  <advance width="465"/>
  <unicode hex="0076"/>
  <outline>
    <contour>
      <point x="19" y="-162" type="line"/>
      <point x="-131" y="223" type="line"/>
      <point x="14" y="223" type="line"/>
      <point x="95" y="-61" type="line"/>
      <point x="169" y="223" type="line"/>
      <point x="314" y="223" type="line"/>
      <point x="174" y="-162" type="line"/>
    </contour>
  </outline>
</glyph>
